<svg xmlns="http://www.w3.org/2000/svg" viewBox="0 0 64 64" role="img" aria-label="Favicon">
  <defs>
    <linearGradient id="g" x1="0" x2="1" y1="0" y2="1">
      <stop offset="0" stop-color="#7c5cff"/>
      <stop offset="1" stop-color="#4fd1c5"/>
    </linearGradient>
  </defs>
  <rect x="6" y="6" width="52" height="52" rx="14" fill="url(#g)"/>
  <path d="M20 40c0-10 6-18 16-18 8 0 14 5 14 12 0 8-7 14-18 14-8 0-12-4-12-8z" fill="rgba(11,18,32,0.88)"/>
  <path d="M25 40c0-7 4-12 11-12 5 0 9 3 9 7 0 5-5 9-12 9-5 0-8-2-8-4z" fill="rgba(234,240,255,0.92)"/>
</svg>
