<svg xmlns="http://www.w3.org/2000/svg" viewBox="0 0 240 240" role="img" aria-label=">3>B8?">
  <defs>
    <linearGradient id="lg" x1="0" x2="1" y1="0" y2="1">
      <stop offset="0" stop-color="#7c5cff"/>
      <stop offset="1" stop-color="#4fd1c5"/>
    </linearGradient>
  </defs>
  <rect x="18" y="18" width="204" height="204" rx="56" fill="url(#lg)"/>
  <path d="M74 152c0-41 23-74 66-74 33 0 58 21 58 49 0 33-28 58-75 58-33 0-49-17-49-33z" fill="rgba(11,18,32,0.90)"/>
  <path d="M91 152c0-27 15-47 42-47 20 0 36 12 36 26 0 20-20 35-50 35-20 0-28-8-28-14z" fill="rgba(234,240,255,0.95)"/>
</svg>
